<mxfile host="app.diagrams.net" agent="Mozilla/5.0 (Windows NT 10.0; Win64; x64) AppleWebKit/537.36 (KHTML, like Gecko) Chrome/129.0.0.0 Safari/537.36" version="24.7.16">
  <diagram name="Trang-1" id="sZ26ORA3GB2YnHU4ORg-">
    <mxGraphModel dx="1834" dy="772" grid="1" gridSize="10" guides="1" tooltips="1" connect="1" arrows="1" fold="1" page="0" pageScale="1" pageWidth="827" pageHeight="1169" math="0" shadow="0">
      <root>
        <mxCell id="0" />
        <mxCell id="1" parent="0" />
        <mxCell id="-4XnIBtAPIhg3w7pLhLC-5" value="" style="edgeStyle=orthogonalEdgeStyle;rounded=0;orthogonalLoop=1;jettySize=auto;html=1;" parent="1" source="-4XnIBtAPIhg3w7pLhLC-1" target="-4XnIBtAPIhg3w7pLhLC-4" edge="1">
          <mxGeometry relative="1" as="geometry" />
        </mxCell>
        <mxCell id="-4XnIBtAPIhg3w7pLhLC-9" value="" style="edgeStyle=orthogonalEdgeStyle;rounded=0;orthogonalLoop=1;jettySize=auto;html=1;entryX=0.5;entryY=0;entryDx=0;entryDy=0;" parent="1" source="-4XnIBtAPIhg3w7pLhLC-1" target="-4XnIBtAPIhg3w7pLhLC-8" edge="1">
          <mxGeometry relative="1" as="geometry">
            <Array as="points">
              <mxPoint x="130" y="190" />
              <mxPoint x="190" y="190" />
            </Array>
          </mxGeometry>
        </mxCell>
        <mxCell id="sn20mlSqS-HbytY9ccLU-24" value="" style="edgeStyle=orthogonalEdgeStyle;rounded=0;orthogonalLoop=1;jettySize=auto;html=1;" edge="1" parent="1" source="-4XnIBtAPIhg3w7pLhLC-1" target="sn20mlSqS-HbytY9ccLU-23">
          <mxGeometry relative="1" as="geometry" />
        </mxCell>
        <mxCell id="-4XnIBtAPIhg3w7pLhLC-1" value="FE - Next, Tailwind" style="rounded=0;whiteSpace=wrap;html=1;fillColor=#d5e8d4;strokeColor=#82b366;" parent="1" vertex="1">
          <mxGeometry x="200" y="50" width="120" height="60" as="geometry" />
        </mxCell>
        <mxCell id="sn20mlSqS-HbytY9ccLU-18" value="" style="edgeStyle=orthogonalEdgeStyle;rounded=0;orthogonalLoop=1;jettySize=auto;html=1;" edge="1" parent="1" source="-4XnIBtAPIhg3w7pLhLC-2" target="sn20mlSqS-HbytY9ccLU-17">
          <mxGeometry relative="1" as="geometry" />
        </mxCell>
        <mxCell id="sn20mlSqS-HbytY9ccLU-19" value="" style="edgeStyle=orthogonalEdgeStyle;rounded=0;orthogonalLoop=1;jettySize=auto;html=1;" edge="1" parent="1" source="-4XnIBtAPIhg3w7pLhLC-2" target="sn20mlSqS-HbytY9ccLU-17">
          <mxGeometry relative="1" as="geometry" />
        </mxCell>
        <mxCell id="sn20mlSqS-HbytY9ccLU-20" value="" style="edgeStyle=orthogonalEdgeStyle;rounded=0;orthogonalLoop=1;jettySize=auto;html=1;" edge="1" parent="1" source="-4XnIBtAPIhg3w7pLhLC-2" target="sn20mlSqS-HbytY9ccLU-17">
          <mxGeometry relative="1" as="geometry" />
        </mxCell>
        <mxCell id="sn20mlSqS-HbytY9ccLU-22" value="" style="edgeStyle=orthogonalEdgeStyle;rounded=0;orthogonalLoop=1;jettySize=auto;html=1;" edge="1" parent="1" source="-4XnIBtAPIhg3w7pLhLC-2" target="sn20mlSqS-HbytY9ccLU-21">
          <mxGeometry relative="1" as="geometry" />
        </mxCell>
        <mxCell id="-4XnIBtAPIhg3w7pLhLC-2" value="BE - Next" style="rounded=0;whiteSpace=wrap;html=1;fillColor=#f8cecc;strokeColor=#b85450;" parent="1" vertex="1">
          <mxGeometry x="580" y="70" width="120" height="60" as="geometry" />
        </mxCell>
        <mxCell id="sn20mlSqS-HbytY9ccLU-10" style="edgeStyle=orthogonalEdgeStyle;rounded=0;orthogonalLoop=1;jettySize=auto;html=1;entryX=0.5;entryY=0;entryDx=0;entryDy=0;" edge="1" parent="1" source="-4XnIBtAPIhg3w7pLhLC-4" target="sn20mlSqS-HbytY9ccLU-5">
          <mxGeometry relative="1" as="geometry" />
        </mxCell>
        <mxCell id="-4XnIBtAPIhg3w7pLhLC-4" value="Sign Up/Sign In" style="rounded=0;whiteSpace=wrap;html=1;fillColor=#d5e8d4;strokeColor=#82b366;" parent="1" vertex="1">
          <mxGeometry x="-40" y="240" width="120" height="60" as="geometry" />
        </mxCell>
        <mxCell id="-4XnIBtAPIhg3w7pLhLC-8" value="Connect Gmail, Outlook" style="rounded=0;whiteSpace=wrap;html=1;fillColor=#d5e8d4;strokeColor=#82b366;" parent="1" vertex="1">
          <mxGeometry x="130" y="240" width="120" height="60" as="geometry" />
        </mxCell>
        <mxCell id="sn20mlSqS-HbytY9ccLU-1" value="Mobile - React Native" style="rounded=0;whiteSpace=wrap;html=1;fillColor=#60a917;strokeColor=#2D7600;fontColor=#ffffff;" vertex="1" parent="1">
          <mxGeometry x="-280" y="80" width="150" height="60" as="geometry" />
        </mxCell>
        <mxCell id="sn20mlSqS-HbytY9ccLU-16" value="" style="edgeStyle=orthogonalEdgeStyle;rounded=0;orthogonalLoop=1;jettySize=auto;html=1;" edge="1" parent="1" source="sn20mlSqS-HbytY9ccLU-2" target="sn20mlSqS-HbytY9ccLU-15">
          <mxGeometry relative="1" as="geometry" />
        </mxCell>
        <mxCell id="sn20mlSqS-HbytY9ccLU-2" value="Cron" style="rounded=0;whiteSpace=wrap;html=1;fillColor=#e1d5e7;strokeColor=#9673a6;" vertex="1" parent="1">
          <mxGeometry x="710" y="430" width="120" height="60" as="geometry" />
        </mxCell>
        <mxCell id="sn20mlSqS-HbytY9ccLU-6" value="" style="edgeStyle=orthogonalEdgeStyle;rounded=0;orthogonalLoop=1;jettySize=auto;html=1;" edge="1" parent="1" source="sn20mlSqS-HbytY9ccLU-3" target="sn20mlSqS-HbytY9ccLU-5">
          <mxGeometry relative="1" as="geometry" />
        </mxCell>
        <mxCell id="sn20mlSqS-HbytY9ccLU-12" value="" style="edgeStyle=orthogonalEdgeStyle;rounded=0;orthogonalLoop=1;jettySize=auto;html=1;" edge="1" parent="1" source="sn20mlSqS-HbytY9ccLU-3" target="sn20mlSqS-HbytY9ccLU-11">
          <mxGeometry relative="1" as="geometry" />
        </mxCell>
        <mxCell id="sn20mlSqS-HbytY9ccLU-14" value="" style="edgeStyle=orthogonalEdgeStyle;rounded=0;orthogonalLoop=1;jettySize=auto;html=1;" edge="1" parent="1" source="sn20mlSqS-HbytY9ccLU-3" target="sn20mlSqS-HbytY9ccLU-13">
          <mxGeometry relative="1" as="geometry" />
        </mxCell>
        <mxCell id="sn20mlSqS-HbytY9ccLU-3" value="MongoDB" style="rounded=0;whiteSpace=wrap;html=1;fillColor=#ffe6cc;strokeColor=#d79b00;" vertex="1" parent="1">
          <mxGeometry x="-250" y="530" width="140" height="60" as="geometry" />
        </mxCell>
        <mxCell id="sn20mlSqS-HbytY9ccLU-8" value="" style="edgeStyle=orthogonalEdgeStyle;rounded=0;orthogonalLoop=1;jettySize=auto;html=1;" edge="1" parent="1" source="sn20mlSqS-HbytY9ccLU-5" target="sn20mlSqS-HbytY9ccLU-7">
          <mxGeometry relative="1" as="geometry" />
        </mxCell>
        <mxCell id="sn20mlSqS-HbytY9ccLU-5" value="User" style="rounded=0;whiteSpace=wrap;html=1;fillColor=#ffe6cc;strokeColor=#d79b00;" vertex="1" parent="1">
          <mxGeometry x="-40" y="430" width="140" height="60" as="geometry" />
        </mxCell>
        <mxCell id="sn20mlSqS-HbytY9ccLU-7" value="Accounts (Gmail, Outlook...) + Access tokens" style="whiteSpace=wrap;html=1;rounded=0;fillColor=#ffe6cc;strokeColor=#d79b00;" vertex="1" parent="1">
          <mxGeometry x="190" y="430" width="120" height="60" as="geometry" />
        </mxCell>
        <mxCell id="sn20mlSqS-HbytY9ccLU-11" value="Emails" style="whiteSpace=wrap;html=1;fillColor=#ffe6cc;strokeColor=#d79b00;rounded=0;" vertex="1" parent="1">
          <mxGeometry x="-30" y="650" width="120" height="60" as="geometry" />
        </mxCell>
        <mxCell id="sn20mlSqS-HbytY9ccLU-13" value="Filtering Options" style="whiteSpace=wrap;html=1;fillColor=#ffe6cc;strokeColor=#d79b00;rounded=0;" vertex="1" parent="1">
          <mxGeometry x="190" y="530" width="120" height="60" as="geometry" />
        </mxCell>
        <mxCell id="sn20mlSqS-HbytY9ccLU-15" value="Fetching newsletters" style="whiteSpace=wrap;html=1;fillColor=#e1d5e7;strokeColor=#9673a6;rounded=0;" vertex="1" parent="1">
          <mxGeometry x="440" y="430" width="120" height="60" as="geometry" />
        </mxCell>
        <mxCell id="sn20mlSqS-HbytY9ccLU-17" value="API Gateway" style="whiteSpace=wrap;html=1;fillColor=#f8cecc;strokeColor=#b85450;rounded=0;" vertex="1" parent="1">
          <mxGeometry x="500" y="240" width="120" height="60" as="geometry" />
        </mxCell>
        <mxCell id="sn20mlSqS-HbytY9ccLU-21" value="Notification Service" style="whiteSpace=wrap;html=1;fillColor=#f8cecc;strokeColor=#b85450;rounded=0;" vertex="1" parent="1">
          <mxGeometry x="750" y="240" width="120" height="60" as="geometry" />
        </mxCell>
        <mxCell id="sn20mlSqS-HbytY9ccLU-23" value="Read Screen" style="whiteSpace=wrap;html=1;fillColor=#d5e8d4;strokeColor=#82b366;rounded=0;" vertex="1" parent="1">
          <mxGeometry x="280" y="240" width="120" height="60" as="geometry" />
        </mxCell>
      </root>
    </mxGraphModel>
  </diagram>
</mxfile>
